<?xml version="1.0" encoding="UTF-8"?><svg id="Icon" xmlns="http://www.w3.org/2000/svg" xmlns:xlink="http://www.w3.org/1999/xlink" viewBox="0 0 250.29 278.15"><defs><style>.cls-1{fill:url(#linear-gradient);}.cls-2{fill:url(#linear-gradient-3);}.cls-3{fill:url(#linear-gradient-4);}.cls-4{fill:url(#linear-gradient-2);}.cls-5{fill:url(#linear-gradient-5);}</style><linearGradient id="linear-gradient" x1="43.5" y1="139.07" x2="250.29" y2="139.07" gradientUnits="userSpaceOnUse"><stop offset="0" stop-color="#f87b0c"/><stop offset=".07" stop-color="#f5721b"/><stop offset=".25" stop-color="#f05e3e"/><stop offset=".44" stop-color="#ec4f5a"/><stop offset=".62" stop-color="#e9446e"/><stop offset=".81" stop-color="#e73e7a"/><stop offset="1" stop-color="#e73c7e"/></linearGradient><linearGradient id="linear-gradient-2" x1="131.94" y1="235.3" x2="161.86" y2="235.3" xlink:href="#linear-gradient"/><linearGradient id="linear-gradient-3" x1="137.93" y1="24.88" x2="151.93" y2="24.88" xlink:href="#linear-gradient"/><linearGradient id="linear-gradient-4" x1="0" y1="184.34" x2="110.82" y2="184.34" xlink:href="#linear-gradient"/><linearGradient id="linear-gradient-5" x1="39.85" y1="241.1" x2="69.55" y2="241.1" xlink:href="#linear-gradient"/></defs><g><path class="cls-1" d="M234.92,278.15H84.76c-3.31,0-6-2.69-6-6s2.69-6,6-6H234.92c1.23,0,3.37-1.64,3.37-2.58V14.59c0-.94-2.14-2.59-3.37-2.59H58.87c-1.23,0-3.37,1.64-3.37,2.59V95.16c0,3.31-2.69,6-6,6s-6-2.69-6-6V14.59c0-8.35,8.11-14.59,15.37-14.59H234.92c7.25,0,15.37,6.24,15.37,14.59v248.98c0,8.35-8.11,14.58-15.37,14.58Z"/><path class="cls-4" d="M155.86,241.3h-17.92c-3.31,0-6-2.69-6-6s2.69-6,6-6h17.92c3.31,0,6,2.69,6,6s-2.69,6-6,6Z"/><circle class="cls-2" cx="144.93" cy="24.88" r="7"/></g><g><path class="cls-3" d="M95.14,278.1H15.67c-8.64,0-15.67-7.03-15.67-15.67V106.25c0-8.64,7.03-15.67,15.67-15.67H95.14c8.64,0,15.67,7.03,15.67,15.67v156.17c0,8.64-7.03,15.67-15.67,15.67ZM15.67,102.58c-2.03,0-3.67,1.65-3.67,3.67v156.17c0,2.03,1.65,3.67,3.67,3.67H95.14c2.03,0,3.67-1.65,3.67-3.67V106.25c0-2.03-1.65-3.67-3.67-3.67H15.67Z"/><path class="cls-5" d="M63.55,247.1h-17.7c-3.31,0-6-2.69-6-6s2.69-6,6-6h17.7c3.31,0,6,2.69,6,6s-2.69,6-6,6Z"/></g></svg>