<?xml version="1.0" encoding="UTF-8"?><svg id="Layer_1_copy_Image" xmlns="http://www.w3.org/2000/svg" viewBox="0 0 174.88 82.6"><defs><style>.cls-1{fill:#97ce4b;}.cls-2{fill:#c8e69c;}.cls-3{fill:#deeeb4;}.cls-4{fill:#2d804d;}.cls-5{fill:#55d5f2;}.cls-6{font-family:MuseoSlab-900, 'Museo Slab';font-size:13px;}.cls-6,.cls-7{fill:#fff;}.cls-8{letter-spacing:.11em;}.cls-9{letter-spacing:.06em;}.cls-10{stroke-width:.15px;}.cls-10,.cls-11,.cls-12{fill:none;stroke-miterlimit:10;}.cls-10,.cls-12{stroke:#55d5f2;}.cls-11{stroke:#fff;}.cls-7{font-family:ArialMT, Arial;font-size:2px;letter-spacing:.11em;}.cls-13{letter-spacing:.11em;}.cls-12{stroke-width:.25px;}</style></defs><circle class="cls-10" cx="64.97" cy="46.98" r="2.61"/><path class="cls-5" d="M95.38,57.92c-.09,.26-.31,.37-.63,.27-.32-.1-1.73-2.21-1.69-2.52,.04-.32,.19-.52,.55-.47,.44,.06,1.92,2.26,1.77,2.73Z"/><path class="cls-5" d="M92.45,52.21c-.09,.26-.31,.37-.63,.26-.32-.1-1.72-2.22-1.68-2.53,.04-.32,.2-.52,.55-.47,.43,.06,1.91,2.27,1.76,2.73Z"/><path class="cls-5" d="M133.63,56.59c-.02,.27-.2,.44-.54,.42-.33-.01-2.25-1.68-2.3-1.99-.05-.32,.05-.55,.4-.6,.43-.06,2.44,1.67,2.43,2.16Z"/><path class="cls-5" d="M145.38,54.7c.93,.45,1.77,1.05,2.5,1.79,.05,.05,.04,.15,.07,.23-.12,.4-.37,.68-.78,.42-.77-.49-1.49-1.05-2.22-1.61-.2-.15-.25-.41-.09-.64,.13-.18,.33-.28,.52-.19"/><path class="cls-5" d="M135.81,48.24c.93,.45,1.77,1.05,2.5,1.79,.05,.05,.04,.15,.07,.23-.12,.4-.37,.68-.78,.42-.77-.49-1.49-1.05-2.22-1.61-.2-.15-.25-.41-.09-.64,.13-.18,.33-.28,.52-.19"/><path class="cls-5" d="M125.94,41.32c.93,.45,1.77,1.05,2.5,1.79,.05,.05,.04,.15,.07,.23-.12,.4-.37,.68-.78,.42-.77-.49-1.49-1.05-2.22-1.61-.2-.15-.25-.41-.09-.64,.13-.18,.33-.28,.52-.19"/><path class="cls-5" d="M118.13,57.02c-.31-.02-2.13-1.77-2.18-2.1-.06-.39,.12-.62,.5-.66,.41-.04,2.27,1.89,2.24,2.3-.03,.34-.23,.48-.55,.46"/><path class="cls-5" d="M114.95,53.32c-.31-.02-2.13-1.77-2.18-2.1-.06-.39,.12-.62,.5-.66,.41-.04,2.27,1.89,2.24,2.3-.03,.34-.23,.48-.55,.46"/><path class="cls-5" d="M110.12,48.54c-.31-.02-2.13-1.77-2.18-2.1-.06-.39,.12-.62,.5-.66,.41-.04,2.27,1.89,2.24,2.3-.03,.34-.23,.48-.55,.46"/><path class="cls-5" d="M104.02,43.75c-.31-.02-2.13-1.77-2.18-2.1-.06-.39,.12-.62,.5-.66,.41-.04,2.27,1.89,2.24,2.3-.03,.34-.23,.48-.55,.46"/><path class="cls-5" d="M101.5,51.26c-.31-.02-2.13-1.77-2.18-2.1-.06-.39,.12-.62,.5-.66,.41-.04,2.27,1.89,2.24,2.3-.03,.34-.23,.48-.55,.46"/><path class="cls-5" d="M104.02,55.64c-.31-.02-2.13-1.77-2.18-2.1-.06-.39,.12-.62,.5-.66,.41-.04,2.27,1.89,2.24,2.3-.03,.34-.23,.48-.55,.46"/><path class="cls-5" d="M107.62,59.23c-.31-.02-2.13-1.77-2.18-2.1-.06-.39,.12-.62,.5-.66,.41-.04,2.27,1.89,2.24,2.3-.03,.34-.23,.48-.55,.46"/><path class="cls-5" d="M144.26,43.91c.09-.27,.33-.38,.57-.29,.82,.32,1.54,.81,2.23,1.35,.08,.06,.1,.21,.14,.3-.1,.5-.44,.62-.8,.43-.67-.34-1.3-.75-1.94-1.16"/><path class="cls-5" d="M140.82,43.3c-.67-.34-1.3-.75-1.94-1.16-.22-.14-.28-.38-.2-.64,.09-.27,.33-.38,.57-.29,.82,.32,1.54,.81,2.23,1.35,.08,.06,.1,.21,.14,.3-.1,.5-.44,.62-.8,.43"/><g><path class="cls-1" d="M13.42,10.43c.25-1.07,.94-1.46,2.01-1.46,16.57,.03,33.13-.03,49.7,.1,3.61,.03,7.25,.05,10.86,.52,5.65,.75,10.17,3.25,13.56,7.87,1.26,1.72,1.38,1.7,2.79,.21,.79-.84,1.36-.98,1.99,.11,.48,.84,.95,.72,1.67,.12,3.15-2.66,6.49-5.04,10.19-6.9,.77-.39,1.37-.37,2.09,.14,1.4,1,2.84,1.92,4.3,2.84,.58,.37,.66,.72,.24,1.25-.27,.34-.46,.75-.73,1.09-.45,.57-.74,1.06,.23,1.41,.3,.11,.57,.38,.41,.75-.2,.45-.59,.38-.91,.16-.76-.51-1.22-.22-1.63,.49-.32,.55-.72,1.06-1.1,1.56-.42,.55-.8,1.05,.11,1.51,.31,.16,.47,.48,.25,.81-.28,.43-.64,.22-.92-.01-.59-.47-.97-.29-1.35,.29-.37,.57-.78,1.12-1.24,1.61-.68,.73-.97,1.35,.1,1.98,.28,.16,.47,.48,.18,.81-.28,.32-.61,.2-.84-.04-.83-.89-1.38-.45-1.97,.31-.46,.59-.83,1.27-1.56,1.61,.07-.75-.29-.85-.95-.75-1.3,.21-2.57,.52-3.89,.62-1.67,.12-2.71-.61-3.46-2.02-.68-1.28-.99-2.69-1.54-4.02-.16-.4-.32-1.05-.73-1.02-1.7,.12-2.21-1.32-3.09-2.24-1.95-2.07-3.95-4.02-6.53-5.36-4.47-2.33-9.25-2.83-14.16-2.85-2.41,0-4.8,.57-7.16,.59-14.89,.15-29.78,.08-44.67,.08-1.75,0-2.16-.41-2.24-2.17Z"/><path class="cls-4" d="M13.42,10.43c.08,1.76,.5,2.17,2.24,2.17,14.89,0,29.78,.08,44.67-.08,2.36-.02,4.75-.6,7.16-.59,4.9,.02,9.69,.52,14.16,2.85,2.58,1.35,4.58,3.29,6.53,5.36,.87,.93,1.38,2.36,3.09,2.24,.41-.03,.56,.62,.73,1.02,.54,1.33,.86,2.74,1.54,4.02,.75,1.41,1.78,2.14,3.46,2.02,1.32-.09,2.6-.41,3.89-.62,.66-.11,1.02,0,.95,.75h.02c-.57,.4-1.01,.92-1.41,1.48h0l-.21,.26h0l-.24,.24h0l-.24,.24h0l-.24,.24h0l-.24,.24h0l-.25,.23h0l-.25,.24h0l-.26,.25c-.63,.55-1.26,1.1-1.88,1.65-.45,.19-.77,.52-1.05,.91-1.27,.96-2.54,1.92-3.81,2.88-.56,.21-.99,.6-1.4,1.02-1.32,.91-2.65,1.82-3.97,2.73-.5,.19-.94,.46-1.31,.86-1.21,.77-2.44,1.52-3.64,2.31-.55,.37-.87,.36-1.17-.32-.78-1.79-1.59-3.57-2.46-5.32-.32-.65-.1-1.14,.18-1.68,1.97-3.79,4.56-7.13,7.41-10.27,.63-.69,.84-1.18,.04-1.81-.87-.69-.72-1.25,.09-1.95,1.46-1.28,1.45-1.36,.12-2.78-1.38-1.48-2.43-3.28-4.27-4.32-2.45-1.39-5.11-2.02-7.88-2.18-3.66-.2-7.34-.18-11-.45-6.33-.47-12.67-.17-19-.22-9.34-.07-18.68-.02-28.02-.02-2.48,0-2.49,0-2.44-2.54,0-.37-.29-.92,.37-1.09Z"/><path class="cls-1" d="M2.9,36.57c.75,1.61,2.31,1.99,3.8,2.38,2.47,.64,5.11,.37,7.55,1.03,2.64,.71,4.99,.25,7.49-.6,2-.68,4.14-1.13,6.31-1.14,.48,0,.98-.05,1.24,.49-.16,.66-.64,.99-1.25,1.15-2.04,.54-3.97,1.38-5.94,2.11-1.4,.52-1.39,.55-.56,1.82,.18,.63,.35,1.25,.53,1.88-.24,1.77-1.26,3.06-2.59,4.13-.62,.49-1.36,.83-1.98,1.31-2.98,2.3-6.41,3.42-10.07,3.98-2.66-.04-3.2-3.17-2.21-5.03,1.17-2.18,2.94-3.81,5.29-4.74,1.08-.43,1.78-1.47,2.92-1.81,.93-.89-.15-.82-.48-.85-1.99-.21-4-.34-5.99-.49-.97-.37-1.97-.68-2.9-1.13-3.66-1.78-5.79-8.01-2.24-11.84,1.54-1.66,3.14-3.19,5.14-4.4,2.47-1.49,5.04-2.88,7.32-4.72,.91-.73,2.04-1.26,3.3-1.26,.35,0,.72-.1,1.04-.25,2.55-1.13,5.22-1.35,7.97-1.21,2.56,.13,4.02,1.31,4.63,3.84-.19,1.08-.62,2.05-1.32,2.9-2.78,3.39-5.79,6.57-8.98,9.57-.98,.92-1.93,1.91-3.18,2.5-1.46-.17-2.27-1.08-2.16-2.43,.06-.73,.38-1.24,1.17-1.21,.5,.02,.82-.22,1.17-.5,2.9-2.28,5.35-5.01,7.79-7.75,.9-1.01,1.82-2.02,2.39-3.27,.43-.55,.63-1-.39-1-2.28-.01-4.53,.23-6.72,.9-5.36,1.63-9.94,4.68-14.23,8.16-1.77,1.44-3.59,2.98-4.18,5.4-.18,.76-.36,1.49,.31,2.11Zm0,1.91l.21,.27c.61,1.1,2.08,1.86,2.98,1.53h.08c.19,.3,.43,.54,.8,.59,.12,.19,.29,.23,.49,.19,2.06,.19,4.13,.33,6.19,.58,1.49,.19,2.99,.41,4.45,.84,.48,.14,1.2,.55,1.51-.45,.14-.44,.77-.51,1.2-.7,.41-.18,.92-.21,1.23-.65-.49-.42-.77,.05-1.11,.12-1.18,.27-2.33,1.17-3.51,.86-3.65-.97-7.42-.98-11.11-1.57l-.55-.18c-.87-.4-1.75-.8-2.62-1.2l-.26-.22-.24-.24-.08-.05,.09,.03c.08,.08,.16,.16,.24,.24Zm6.79-13.11c.22-.06,.47-.06,.54-.33,0-.04-.08-.14-.12-.14-.25,0-.4,.17-.55,.35-.14,.05-.32,.08-.3,.29,0,.03,.05,.08,.08,.08,.19,.03,.27-.11,.35-.25Zm-3.16,28.2l-.31-1.66c.6-1.24,1.61-2.14,2.56-3.09,.15-.15,.41-.32,.13-.57-.19-.17-.36-.04-.53,.07-1.27,.9-2.33,1.93-2.45,3.61-.24,.7,.07,1.22,.54,1.69,1.05,.57,2.34,.44,3.04-.35-1.03,0-1.98,.44-2.98,.3Zm2.57-1.62c1.33,.17,2.68-.45,3.31-1.54,.19-.34,.47-.5,.82-.63,2.53-.93,4.53-2.52,6-4.78,.36-.41,.16-.73-.18-1.01-.44-.36-.89-.24-1.33,.01-2.52,1.44-5.02,2.92-7.24,4.8-1.04,.88-2.04,1.84-2.96,3.05l1.59,.1Zm8.32-16.93c.05-.02,.09-.02,.13-.04,2.06-1.39,3.77-3.15,5.5-4.9,.12-.12,.12-.3-.03-.42-.19-.15-.39-.31-.64-.11-.28,.23-.54,.47-.81,.7-1.48,1.25-2.72,2.81-4.58,3.55-.33,.13-.43,.34-.23,.65,.16,.26,.28,.59,.66,.58Zm10.34-16.3c-2.77-.64-5.48-.41-8.12,.65-.25,.1-.55,.24-.41,.6,.15,.37,.45,.21,.71,.14,.73-.2,1.43-.45,2.17-.63,1.86-.44,3.78-.37,5.64-.76Zm-8.46,29.68c1.48-1.21,1.86-2.26,1.2-3.52,.04,1.33-2.25,1.81-1.2,3.52Zm10.51-27.85c-.72,.56-.47,1.43-.96,1.97-.13,.15,0,.39,.22,.47,.25,.09,.35-.1,.46-.26,.39-.63,.62-1.28,.28-2.17ZM1.34,35.08c.15-.54,.3-1.05,.43-1.56,.07-.26,.38-.63-.16-.72-.38-.07-.55,.24-.59,.58-.07,.59-.06,1.17,.31,1.71Zm10.18-10.91c-.48,.01-.76,.09-.86,.51,.4,.07,.61-.09,.86-.51Z"/><path class="cls-1" d="M29.72,38.72c1.45-4.77,3.63-9.27,5.42-13.91,.22-.56,.42-.95-.27-1.37-.61-.36-.63-.94-.09-1.5,1-1.02,1.99-2.06,2.94-3.13,.84-.94,1.9-1.01,2.95-.65,1.03,.35,1.57,1.18,1.49,2.33-.74,1.02-1.43,2.07-1.84,3.29l2.36-2.26c1.43-1,2.7-2.23,4.32-2.97,.69-.31,1.37-.62,2.12-.78,3.01-.66,5.01,.71,5.63,3.91-.14,3.39-1,6.58-2.61,9.58-2.4,4.48-5.85,8.03-9.83,11.09-3.08,2.38-6.35,4.41-10.36,4.81-.44,.04-.62,.33-.72,.69-.42,1.57-1.04,3.11-1.01,4.77,.03,1.12-.36,2.02-1.22,2.72-1.89,.04-2.24-1.24-2.4-3.38-.15-1.88,.28-3.72,.77-5.52,.12-.46,.24-.9,.15-1.4-.23-1.3-.22-2.54,1.14-3.31,.13-.07,.13-.36,.19-.54,.42-.77,.68-1.6,.87-2.46Zm8.62-6.48h.01c-2.03,2.89-3.51,6.07-4.76,9.37-.14,.27-.32,.53-.4,.82-.09,.32-.46,.7-.15,.95,.34,.28,.71-.07,1.01-.29,.52-.2,1.05-.38,1.55-.6,.42-.18,.87-.34,1.24-.02,.5,.44,.83,.12,1.25-.11,1.84-1.01,3.09-2.66,4.55-4.1,3.47-3.41,6.52-7.06,8.11-11.77,.64-1.89,.96-3.77,.75-5.74,.14-1-.41-1.13-1.14-.83-3.36,1.38-5.88,3.84-8.17,6.57-.88,.92-1.58,1.97-2.18,3.09l-.68,1c-.48,.46-.81,1.01-1,1.66Zm-9.32,15.37c-.55-.09-.89,.03-1,.68-.2,1.14-.5,2.27-.4,3.43,.07,.75,0,1.59,.67,2.17,1-.1,.85-.98,.89-1.56,.07-1.08,.16-2.18,.6-3.14,.76-1.66,.32-3.36,.43-5.05,.04-.55-.3-.88-.74-.87-.5,0-1.13,2.09-.7,2.29,1.24,.6,.61,1.31,.25,2.04Zm11.95-27.61c-.65-1.14-1.6-1.33-2.48-.43-.75,.76-1.43,1.6-2.16,2.41,.29,.27,.72,.28,.86,.66l-.72,1.94c-.34,.77-1.18,1.51-.13,2.35-.14,.46-.26,.92-.41,1.37-.08,.24-.15,.49,.1,.63,.31,.18,.43-.11,.51-.32,1.23-3,2.92-5.77,4.43-8.62Zm12.51,3.61c-.11-.34,.41-.79-.09-.94-.58-.18-.68,.34-.75,.8-.08,.51-.18,1.02-.29,1.52-.09,.4,.05,.62,.44,.67,.44,.06,.38-.3,.43-.56,.1-.51,.18-1.01,.26-1.49Zm-.81-4c-.24,.51-.12,.94-.11,1.35,.01,.41,.3,.52,.65,.47,.53-.07,.32-.44,.24-.71-.11-.42-.32-.79-.78-1.11Z"/><path class="cls-1" d="M68.81,47.21c.18-1.3,.47-2.58,.8-3.85,.16-.61,.11-1.08-.34-1.51h0c.73,.08,.75-.45,.8-.94,.48-1.15-.38-1.03-.97-.94-2.87,.43-5.73,.92-8.6,1.37-.44,.07-.7,.29-.91,.67-2.5,4.51-4.75,9.13-6.23,14.1-.34,1.12-.41,2.38-1.33,3.28-2.15-.31-2.66-1.06-2.11-3.1,1-3.7,2.65-7.13,4.27-10.58,.22-.46,.57-.88,.51-1.43h-.03l.3-.26c.22-.41,.68-.73,.56-1.32-1.34,.26-2.43,.71-3.26,1.34-.77,.1-1.4,.02-1.73-.85-.31-.82-.19-1.38,.68-1.72,1.56-.62,3.13-1.19,4.77-1.54,1.13-.24,1.9-.79,2.45-1.86,1.21-2.33,2.51-4.65,4.16-6.69,3.45-4.26,6.3-9.01,10.36-12.78,.15-.14,.29-.28,.43-.42,.85-.83,1.81-1.65,3.05-1.2,1.2,.44,2.04,1.38,2.11,2.79-.21,1.09-.23,2.19-.52,3.28-1.25,4.59-2.43,9.19-3.64,13.79-.56,2.48-1.4,4.88-1.72,7.42-.48,.91-.57,1.9-.69,2.9-.33,1.17-.61,2.35-.52,3.58,.08,.9-.35,1.9,.45,2.68,.1,.56,.5,1.17-.15,1.64-.65,.47-1.23,.05-1.76-.28-1.55-.97-1.57-2.59-1.59-4.13m5.18-28.47h0c-1.06,.9-2.01,1.9-2.72,3.11l-.15,.2c-.31,.29-.62,.58-.73,1.01h.01c-1.08,1.27-2.1,2.59-2.89,4.08h0c-.3,.14-.44,.4-.49,.72v-.03c-.42,.31-.8,.73-1.05,1.11-.67,1.02-1.79,1.73-2.07,3-.7,.93-1.37,1.88-1.84,2.96,.52,.32,.94-.02,1.39-.08,2.26-.2,4.48-.87,6.76-.69,.88,.07,1.18-.31,1.37-1.08,.63-2.52,1.32-5.02,1.96-7.53,.49-1.93,1.28-3.79,1.45-5.8h-.03c.26-.18,.23-.48,.3-.74,.24-.45,.42-.92,.41-1.44,.05-.15,.18-.31,.15-.43-.07-.25-.24-.08-.35,0-.59,.45-1.31,.8-1.5,1.62Zm3.08-1.7c-.36,1.13-.73,2.26-1.05,3.4-.09,.31-.28,.75,.22,.91,.53,.16,.69-.25,.8-.65,.32-1.19,.64-2.38,.67-3.63,.2-.68,.3-1.33-.52-1.87l-.11,1.85Zm-25.78,36.43c-.11,.68-.01,1.03,.43,1.1,.47,.07,.43-.38,.52-.65,.71-2.28,1.37-4.58,2.38-6.75,.11-.23,.36-.55,0-.73-.34-.16-.71-.08-.89,.34-.22,.51-.44,1.02-.66,1.54-.75,1.76-1.36,3.57-1.76,5.16Zm.79-14.24c5.73-2.01,11.68-3.02,17.65-3.98-6.06,.52-12.02,1.5-17.65,3.98Z"/><path class="cls-1" d="M102.94,44.51l-.02-1.06c.01-.62-.1-.81-.16-1.29-.06-.46-.35-.34-1.06-.5-.09-.02-.48-.05-.62-.06-.86-.03-.82,.57-.82,1.14,0,1.6,0,3.2,0,4.8,0,.23,0,.38-.02,.69,0,0,0,.04,0,.05,0,.01,0,.07,0,.08,0,.02,0,.06,0,.07,.01,.4,.04,.78,.06,1.18,.01,.28,.03,.55,0,.83,0,.05,0,.09-.01,.13,0,.02,0,.03,0,.05,0,.07,0,.14,0,.21,0,.11-.02,.22-.04,.33h0s.01,.08,.02,.12c.19,3.25-2.23,4.96-5.26,3.7-.89-.37-1.41-.99-1.39-2.01,.03-1.44,0-2.88,0-4.32,0-1.48,0-2.96,0-4.44,0-.21,.03-.34,.07-.42,0-.03-.01-.07-.01-.1,0-.2-.03-.37,.02-.57,0-.03,.02-.06,.02-.09,0-.01,0-.03,0-.04,0-.09,.01-.17,.01-.26,0-.09,0-.18,0-.26,0-.03,0-.06,0-.1v-.02l-.03-.05s-.03-.06-.04-.09c-.03-.06-.05-.12-.08-.19,0,0-.03-.08-.02-.04-.03-.07-.07-.14-.11-.2l-.02-.04s0,0-.01-.01c-.02-.03-.05-.05-.07-.08-.03-.03-.06-.06-.09-.08l-.03-.02s-.06-.04-.09-.05c-.03-.01-.06-.02-.09-.04-.94,0-2.24,.16-2.36,.38-.09,.16-.1,.38-.1,.58,0,1.6-.12,3.21,.03,4.79,.14,1.58-.4,3.08-.11,4.73,.41,2.38,1.22,4.16,3.46,5.33,1.28,.66,2.52,.44,3.78,.54,2.28,.18,4.06-.63,5.09-2.78,.03-.06,.06-.13,.1-.19,0-.02,0-.04,0-.06,.03-.35,.08-.7,.14-1.05,.11-.68,.1-1.38,.1-2.06,0,0,0-.01,0-.02,.05-2.4-.26-4.75-.26-7.15Zm-1.06,8.62c-.32,2.14-1.99,3.51-4.15,3.61-1.81,.09-3.63,.11-5.01-1.37-.69-.74-.83-1.56-1.07-2.93-.13-.72-.03-.34-.04-.84-.06-.4-.11-1.21-.11-1.65,0-2.11,0-4.22,0-6.33,0-.36-.19-.95,.36-.98,.62-.04,.39,.57,.39,.91,0,2.55,0,5.09-.02,7.64,.02,.2,.04,.4,.05,.6,.15,4.41,3.97,4.99,6.77,3.86,.94-.38,1.46-1.17,1.82-2.11,.31-.79,.5-1.55,.41-2.55,0-.07-.01-.58-.04-.68-.59-2.5,.15-4.54-.12-7.04-.03-.31,0-.67,.44-.7,.46-.03,.51,.3,.5,.64-.1,3.31,.28,6.63-.21,9.92Z"/><path class="cls-1" d="M93.45,42.86l-.08-.17s-.08,.05-.08,.06c.01,.06,.04,.12,.07,.18l.09-.06Z"/><path class="cls-1" d="M145,55.43s-.06-.09-.08-.14c-.02-.02-.05-.04-.07-.06-.07-.04-.13-.07-.2-.11-.15-.05-.31-.07-.49-.08-.33,.01-.66,.02-.98,.02-.02,0-.03,0-.05-.01h-.04c-1.26,0-2.51,0-3.76,0-.23,0-.48,.01-.67-.19-.12-.14-.22-2.04-.14-2.71v-1.11s.01-.05,.02-.08h0s.01-.03,.02-.04c0-.04,.02-.07,.04-.1,.21-.5,.64-.32,.95-.33,1.44-.03,2.87,0,4.31-.02,.35,0,.72,.04,.88-.43,.41-1.2-.11-1.98-1.37-1.98-.76,0-1.52,.01-2.28,0-2.91-.07-2.53,.58-2.57-2.75,0-.67,.25-.96,.91-.92,1.59,.1,2.88-.04,4.68,.02,.37,.01,.67-.11,.79-.23,.48-.48,.35-.64,.31-1.4-.04-.85-.24-1.23-1.17-1.17-2.33,.14-4.67-.22-7.01-.02-.89,.08-1.17,.3-1.14,1.18,.06,1.69,.02,3.39,.02,5.26h0s0,.03,0,.05c0,0,0,.01,0,.02v2.22c.02,.19,.04,.38,.03,.59-.08,1.83,0,3.68-.03,5.51,0,.67,.14,.96,.91,1.05,2.51,.27,5.02,.05,7.53,.14,.7,.02,.8-.33,.89-.95,.07-.49-.05-.88-.24-1.24Zm-1.57,1.26c-1.91,0-3.83-.02-5.74,.01-.67,.01-.91-.24-.91-.91,.02-4.11,.02-8.22,0-12.33,0-.74,.29-1,.99-.96,.91,.05,1.76,.05,2.74,.14,.81,.07,1.43-.05,2.46,.11,.37,.06,.79-.11,1.18,.24-.34,.42-.8,.26-1.19,.27-1.4,.02-2.79,.04-4.19,0-.8-.03-1.05,.29-1.02,1.05,.04,1.08,.08,2.16,0,3.23-.08,1,.3,1.4,1.26,1.33,1.4-.01,2.79-.03,4.19-.03,.24,0,.54,.02,.54,.33,0,.3-.3,.34-.54,.34-1.4,0-2.79-.01-4.19-.02-.93-.05-1.33,.31-1.26,1.31,.09,1.3,.08,2.61,0,3.9-.06,.96,.24,1.42,1.24,1.3,1.47-.01,2.95-.03,4.42-.03,.31,0,.65-.08,.85,.27-.07,.52-.48,.46-.82,.46Z"/><path class="cls-1" d="M126.09,41.84c-.25,.24-.75,.53-1.04,.79-1.54,1.33-1.65,2.99-1.09,4.8,.05,.16,.16,.31,.24,.47h0c.06,.11,.11,.22,.17,.32,.13,.22,.29,.45,.45,.65l.03,.03s.05,.06,.07,.08c.04,.04,.09,.09,.13,.13l.02,.02,.08,.06c.07,.04,.14,.09,.2,.13,.22,.15,.44,.29,.66,.44,.07,.02,.15,.04,.22,.07,1.24,.54,2.49,1.07,3.73,1.62,.83,.37,1.18,1.03,1.11,1.93-.07,1.02-.95,1.79-2.26,1.9-1.53,.13-3.02-.11-4.47-.63-.26-.09-.57-.4-.86-.05-.44,.53,.05,2.31,.69,2.58,1.72,.72,3.53,.65,5.31,.44,1.45-.17,2.79-.76,3.59-2.11,1.51-2.55,.52-5.27-2.39-6.57-1.09-.49-2.22-.88-3.3-1.39-.8-.38-1.13-1.12-1.08-1.98,.05-.76,.52-1.31,1.23-1.45,1-.2,2.04-.35,3.02,.14,.04,.03,.65,.15,.7,.18,.22,.03,.48,.05,.69,.11,1.17,.38,.91-.7,1.17-1.19,.3-.55,.27-1.02-.5-1.26-1.46-.46-2.94-.82-4.46-.64-.82,.09-.35-.02-1.57,.2m1.74,.67c1.23-.09,2.45-.05,3.61,.44,.15,.06,.3,.12,.29,.12-.05,.55-.25,.67-.51,.59-1.06-.35-2.16-.45-3.27-.47-.21,0-.37-.16-.39-.38-.03-.19,.1-.29,.28-.3Zm2.35,14.07c-.93,.39-1.94,.38-2.98,.59-.92-.15-1.89-.3-2.87-.48-.35-.06-.6-.27-.47-.67,.1-.33,.37-.2,.59-.15,1.84,.4,3.67,.63,5.5-.06,.3-.11,.6,.02,.67,.31,.08,.29-.24,.37-.45,.45Zm2.04-2.68c-.03,.55-.09,1.41-.63,1.34-.9-.12-.18-.87-.17-1.35,0-.28,.05-.55,.08-.83-.45-2.12-2.32-2.5-3.93-3.18-1.31-.56-2.74-.95-3.24-2.53-.64-1.68-.31-3.22,.88-4.03,.32-.22,.73-.55,1.05-.13,.37,.47-.25,.55-.47,.73-.77,.64-1.02,1.47-.96,2.43,.56,1.7,1.96,2.37,3.5,2.89,1.17,.39,2.34,.8,3.19,1.76,.71,.79,1.12,1.69,.72,2.79,0,.04,0,.08,0,.12Z"/><path class="cls-1" d="M115.81,54.21c-.68-.88-1.15-1.91-1.76-2.85-.36-.55-.29-.81,.29-1.2,1.94-1.27,2.56-3.4,1.78-5.57-.09-.24-.25-.47-.31-.78-.08-.1-.16-.2-.23-.31-.04-.06-.07-.12-.12-.18h-.01s-.05-.07-.07-.09c-.09-.1-.19-.19-.29-.28-.06-.05-.11-.1-.17-.14-.03-.02-.06-.05-.08-.07h0c-.11-.07-.23-.12-.33-.2-.03-.02-.05-.05-.08-.07-.04-.01-.07-.02-.11-.04-1.98-1.03-4.12-.77-6.22-.79-1.87-.02-1.78,.51-1.99,1.67-.23,1.28-.07,1.51,0,2.48,.21,3.1,.16,6.78-.25,9.85-.22,1.65,.34,2.12,1.27,2.37,.7-.12,1.53-.31,1.68-.82,.28-.91,.17-.71-.04-1.83-.15-.81-.06-1.67-.02-2.51,.03-.5-.29-1.28,.51-1.38,.81-.1,1.75-.39,2.32,.67,.72,1.34,1.64,2.57,2.25,3.95,.6,1.38,1.2,1.58,2.65,1.26,.41-.08,1.02-.89,.76-1.23-.61-.8-.84-1.13-1.43-1.89Zm.06,2.42c-.39,.22-.75-.1-.97-.48-.85-1.45-1.77-2.86-2.51-4.36-.51-1.04-1.16-1.42-2.32-1.36-2.57,.12-2.21-.32-2.24,2.23-.01,1.08,0,2.16,0,3.24,0,.62-.16,1.1-.9,.56-.01-2.9-.03-5.8-.04-8.69,0-.38-.11-.84,.48-.92,0-.44,0-.88,0-1.32-.85-.79-.39-1.78-.39-2.7,0-.09,.23-.27,.34-.26,2.05,.09,4.14-.45,6.13,.46,1.73,.56,2.51,2.39,1.84,4.34-.13,1.18-.92,1.83-1.89,2.34-.34,.18-.68,.35-1.03,.53,1.12,1.84,2.26,3.67,3.36,5.52,.15,.25,.62,.61,.15,.88Z"/><path class="cls-1" d="M158.46,49.5c0-2.28,.02-4.56-.01-6.83-.01-.76,.2-1.07,1.01-1.05,2.43,.04,4.87,.06,7.31,0,1.12-.03,.91,.69,.98,1.34,.07,.73-.11,1.12-.96,1.1-1.52-.05-3.03,.02-4.55-.03-.79-.02-1.02,.28-1.04,1.05-.1,3.57-.12,3.57,3.45,3.57,.52,0,1.04,.04,1.56,0,.86-.08,1.03,.31,1.1,1.1,.11,1.2-.32,1.55-1.46,1.47-1.23-.09-2.47,0-3.71-.02-.66-.01-.93,.26-.92,.92,.02,1.44,0,2.88,0,4.32,0,.62,.02,1.37-.88,1.17-.73-.16-1.97,.39-1.9-1.24,.1-2.27,.02-4.56,.02-6.83Zm7.82,.06c-.07-.02-.13-.03-.2-.02h-4.34c-.07,0-.14,0-.21,.01-.99,.1-1.32-.32-1.25-1.31,.08-1.31,.05-2.64,0-3.95-.03-.78,.26-1.06,1.04-1.04,1.51,.04,3.03,.02,4.55,0,.32,0,.84,.14,.84-.39,0-.44-.47-.34-.76-.34-1.91-.01-3.83,.01-5.74-.01-.69,0-.88,.3-.88,.94,.01,4.11,0,8.23,.01,12.34,0,.37-.12,.9,.52,.86,.52-.03,.44-.49,.44-.83,.01-1.52,.04-3.04,0-4.55-.02-.78,.25-1.06,1.03-1.04,1.47,.05,2.95,.03,4.43,0,.37,0,1.04,.1,.53-.67Z"/><path class="cls-2" d="M29,55.34c.86-.71,1.25-1.6,1.22-2.72-.04-1.66,.59-3.2,1.01-4.77,.1-.36,.27-.65,.72-.69,4.01-.4,7.28-2.43,10.36-4.81,3.97-3.07,7.42-6.61,9.83-11.09,1.61-3,2.47-6.19,2.61-9.58,.83,.7,.67,1.65,.58,2.54-.4,4.15-1.9,7.94-4.43,11.2-4.14,5.31-8.92,9.9-15.52,12.11-.38,.13-.77,.31-1.15,.3-1.72-.05-2.44,.91-2.72,2.46-.22,1.21-.7,2.38-.58,3.65,.05,.54-.16,1.02-.42,1.47-.56,1-.89,.98-1.5-.06Z"/><path class="cls-1" d="M150.25,48.38c0,1.8,.05,3.59-.02,5.38-.04,.97,.23,1.36,1.26,1.31,1.47-.08,2.95,.02,4.42-.03,1.21-.04,.9,.84,.99,1.48,.09,.65-.09,1.11-.86,1.1-2.55-.06-5.09,.14-7.64-.15-.65-.07-.79-.33-.78-.9,.01-4.67,.02-9.34-.01-14,0-.88,.42-1.02,1.1-.93,.62,.08,1.54-.39,1.52,.88-.03,1.95,0,3.91,0,5.86h.03Zm-1.9,1.16c0,2,.05,4-.02,5.99-.03,.98,.31,1.23,1.24,1.19,1.75-.07,3.51,0,5.26-.03,.38,0,1.05,.26,1.05-.39,0-.54-.63-.34-.98-.34-1.44-.02-2.87-.05-4.31,.03-1.01,.06-1.32-.32-1.3-1.31,.04-3.75,.02-7.51,.01-11.26,0-.36,.21-.92-.39-.96-.65-.04-.56,.55-.56,.97-.01,2.04,0,4.07,0,6.11Z"/><path class="cls-2" d="M2.9,36.57c-.67-.62-.49-1.35-.31-2.11,.59-2.42,2.4-3.96,4.18-5.4,4.29-3.48,8.86-6.52,14.23-8.16,2.19-.67,4.44-.91,6.72-.9,1.02,0,.83,.45,.39,1-.93-.4-1.89-.09-2.78,.04-4.21,.59-7.95,2.4-11.53,4.64-2.94,1.85-5.77,3.8-8.19,6.34-1.07,1.13-1.91,2.32-2.29,3.84-.06,.25-.28,.47-.42,.7Z"/><path class="cls-2" d="M52.02,59.38c.92-.9,.99-2.16,1.33-3.28,1.49-4.97,3.74-9.59,6.23-14.1,.21-.38,.47-.6,.91-.67,2.87-.45,5.73-.95,8.6-1.37,.59-.09,1.46-.21,.97,.94-.73,.17-1.6-.44-2.21,.4-.64,.08-1.29,.1-1.89,.37-.69-.34-1.4-.09-2.06,.03-3.36,.62-3.37,.64-4.94,3.76-2.23,4.41-4.26,8.89-5.51,13.7-.09,.35-.14,.77-.55,.84-.43,.07-.77-.14-.88-.61Z"/><path class="cls-2" d="M17.74,36.17c1.25-.59,2.2-1.58,3.18-2.5,3.19-3,6.2-6.18,8.98-9.57,.7-.85,1.13-1.82,1.32-2.9,.91,.68,.77,1.54,.42,2.44-.62,1.6-1.87,2.77-3,3.96-2.91,3.08-5.68,6.32-9.06,8.92-.76,.59-1.43,.75-1.84-.37Z"/><path class="cls-2" d="M71.95,47.14c.11-.99,.21-1.99,.69-2.9,.33-.05,.45-.28,.52-.57,.52-2.11,1.04-4.23,1.55-6.34,.07-.29-.09-.44-.35-.51,1.21-4.6,2.4-9.21,3.64-13.79,.29-1.08,.31-2.19,.52-3.28,.88,.71,.61,1.67,.47,2.54-.54,3.43-1.63,6.72-2.53,10.05-1.58,5.87-3.07,11.76-4.26,17.73-.22,1.08-.22,2.21-.32,3.32-.81-.78-.37-1.77-.45-2.68,.64-.98,.63-2.13,.89-3.21,.05-.23-.17-.32-.37-.37Z"/><path class="cls-2" d="M7.44,55.1c3.66-.57,7.09-1.68,10.07-3.98,.63-.48,1.37-.82,1.98-1.31,1.33-1.07,2.36-2.35,2.59-4.13,.91,.37,.74,1.12,.61,1.82-.28,1.41-1.17,2.45-2.27,3.26-3.12,2.31-6.45,4.23-10.35,4.86-.88,.14-1.97,.71-2.64-.52Z"/><path class="cls-2" d="M29.72,38.72c-.19,.85-.45,1.68-.87,2.46-.06-.05-.14-.15-.18-.14-2.48,.63-4.96,1.28-7.12,2.76-.84-1.27-.85-1.3,.56-1.82,1.97-.73,3.9-1.58,5.94-2.11,.61-.16,1.09-.48,1.25-1.15h.42Z"/><path class="cls-2" d="M6.95,42.17c2,.16,4,.29,5.99,.49,.33,.03,1.41-.04,.48,.85-1.36-.38-2.77-.29-4.16-.45-.88-.1-1.69-.22-2.31-.89Z"/><path class="cls-5" d="M122.2,60.56c-.03,.34-.23,.48-.55,.46-.31-.02-2.13-1.77-2.18-2.1-.06-.39,.12-.62,.5-.66,.41-.04,2.27,1.89,2.24,2.3Z"/><path class="cls-5" d="M134.24,72.38c.43-.03,2.35,1.87,2.31,2.28-.05,.48-.39,.66-.75,.41-.75-.52-1.4-1.17-1.93-1.91-.27-.38,0-.66,.37-.78Z"/><path class="cls-5" d="M123.81,39.83c-.12,.4-.37,.68-.78,.42-.77-.49-1.49-1.05-2.22-1.61-.2-.15-.25-.41-.09-.64,.13-.18,.33-.28,.52-.19,.93,.45,1.77,1.05,2.5,1.79,.05,.05,.04,.15,.07,.23Z"/><path class="cls-5" d="M89.63,48.04c-.01,.21-.06,.39-.29,.47-.26,.09-.48,0-.62-.21-.47-.74-.92-1.48-1.37-2.23-.13-.22-.09-.46,.1-.65,.16-.16,.34-.18,.54-.1,.31,.13,1.65,2.37,1.64,2.72Z"/><path class="cls-5" d="M110.01,30.98c-.73-.58-1.71-.98-2.36-1.82-.12-.15-.07-.39,.07-.56,.15-.17,.37-.23,.54-.12,.78,.54,1.56,1.1,2.31,1.68,.16,.12,.15,.36,.04,.55-.11,.19-.27,.29-.6,.26Z"/><path class="cls-5" d="M102.15,68.31c.12,.09,.29,.16,.36,.28,.47,.73,.94,1.47,1.38,2.21,.15,.26,.14,.55-.17,.72-.23,.13-.5,.1-.64-.11-.5-.76-1-1.52-1.42-2.32-.19-.36,.02-.68,.49-.78Z"/><path class="cls-5" d="M137.28,59.82c-.06,.42-.37,.63-.74,.4-.77-.48-1.51-1.03-2.09-1.74-.24-.3-.14-.62,.24-.75,.45-.16,2.58,1.55,2.58,2.1Z"/><path class="cls-5" d="M115.01,33.57c-.05,.48-.34,.69-.8,.4-.71-.45-1.39-.93-2.04-1.45-.36-.29-.41-.72,.12-.94,.38-.16,2.67,1.51,2.72,1.99Z"/><path class="cls-2" d="M52.26,44.03c.83-.63,1.91-1.08,3.26-1.34,.12,.58-.34,.9-.56,1.32-.1,.08-.2,.17-.3,.25h.03c-.4-.04-.79,.06-1.1,.3-.76,.59-1.18,.38-1.34-.52Z"/><path class="cls-5" d="M101.11,66.44c.01,.21-.04,.4-.24,.5-.25,.13-.49,.08-.63-.14-.49-.77-.98-1.54-1.43-2.33-.12-.21-.08-.48,.13-.65,.17-.14,.36-.11,.55,.01,.24,.15,1.62,2.35,1.62,2.61Z"/><path class="cls-5" d="M125.78,64.11c-.08,.4-.37,.66-.75,.39-.74-.54-1.44-1.15-1.91-1.95-.24-.4-.02-.7,.45-.73,.37-.02,2.21,1.89,2.2,2.29Z"/><path class="cls-5" d="M106.85,76.07c-.28,.12-.56,.22-.86,.12-.42-.68-.84-1.35-1.24-2.03-.22-.37-.52-.84,0-1.15,.5-.31,.69,.22,.87,.54,.46,.82,1.22,1.49,1.24,2.52Z"/><path class="cls-5" d="M96.28,59.14c.29,0,.45,.11,.56,.28,.44,.7,.88,1.4,1.31,2.12,.15,.26,.15,.54-.11,.75-.29,.23-.55,.08-.71-.16-.48-.73-.95-1.46-1.37-2.21-.2-.36-.1-.7,.32-.77Z"/><path class="cls-5" d="M113.7,40.4c-.1,.4-.39,.62-.76,.35-.7-.5-1.38-1.06-2.01-1.65-.31-.29-.25-.67,.21-.83,.44-.14,2.57,1.61,2.56,2.13Z"/><path class="cls-5" d="M123.42,31.11c.74,.38,1.52,.84,2.21,1.43,.19,.17,.18,.43,0,.64-.17,.2-.39,.28-.63,.14-.67-.41-1.34-.82-2-1.25-.21-.14-.31-.37-.21-.62,.1-.24,.28-.37,.63-.34Z"/><path class="cls-5" d="M138.22,31.08c-.07,.47-.32,.68-.74,.49-.69-.31-1.35-.66-2.02-1.01-.29-.15-.35-.42-.25-.72,.07-.21,.26-.36,.46-.3,.87,.28,1.69,.66,2.41,1.24,.08,.07,.11,.2,.15,.3Z"/><path class="cls-5" d="M133.88,37.81c-.08,.53-.35,.8-.82,.55-.69-.37-1.35-.81-1.99-1.26-.25-.17-.29-.48-.09-.73,.16-.21,.4-.29,.63-.15,.68,.4,1.34,.82,2,1.25,.12,.08,.19,.24,.26,.35Z"/><path class="cls-5" d="M105.85,33.87c-.13,.43-.41,.7-.85,.37-.66-.49-1.3-1.03-1.9-1.59-.32-.3-.28-.66,.16-.84,.42-.17,2.59,1.56,2.59,2.06Z"/><path class="cls-5" d="M119.32,44.76c.71,.51,1.57,1.02,2.13,1.86,.08,.12,0,.4-.09,.54-.16,.24-.43,.19-.63,.04-.66-.51-1.3-1.03-1.93-1.57-.19-.16-.22-.42-.09-.66,.1-.2,.29-.26,.62-.21Z"/><path class="cls-5" d="M138.71,60.91c.42,0,2.37,1.63,2.43,1.96,.03,.2,.02,.4-.15,.55-.22,.2-.45,.15-.65-.01-.62-.5-1.23-1.02-1.83-1.54-.19-.17-.27-.4-.18-.65,.08-.2,.25-.3,.38-.31Z"/><path class="cls-5" d="M119.35,36.75c-.06,.38-.29,.62-.65,.39-.77-.49-1.5-1.04-2.24-1.58-.21-.16-.25-.4-.11-.64,.11-.19,.32-.32,.5-.23,.91,.47,1.81,.98,2.46,1.81,.04,.05,.03,.15,.04,.24Z"/><path class="cls-5" d="M117.21,70.28c-.42-.02-2.13-2.05-2.04-2.4,.11-.41,.45-.69,.78-.37,.62,.61,1.17,1.29,1.65,2.01,.22,.32,.04,.7-.4,.76Z"/><path class="cls-5" d="M129.38,53.38c-.02,.27-.2,.44-.54,.42-.33-.01-2.25-1.68-2.3-1.99-.05-.32,.05-.55,.4-.6,.43-.06,2.44,1.67,2.43,2.16Z"/><path class="cls-5" d="M123.18,23.18c.62,.32,1.36,.69,2.08,1.1,.21,.12,.31,.37,.2,.62-.13,.28-.38,.44-.68,.3-.71-.34-1.41-.7-2.1-1.08-.23-.13-.27-.38-.2-.63,.08-.27,.3-.34,.7-.3Z"/><path class="cls-5" d="M113.57,25.24c-.04,.43-.3,.63-.65,.49-.8-.34-1.55-.79-2.21-1.37-.16-.14-.16-.35-.04-.55,.13-.23,.37-.4,.59-.27,.75,.44,1.47,.92,2.19,1.4,.08,.05,.09,.21,.12,.3Z"/><path class="cls-5" d="M118.76,21.01c.77,.33,1.62,.66,2.34,1.23,.2,.16,.18,.43,.02,.65-.16,.21-.4,.27-.64,.16-.68-.33-1.35-.66-2.01-1.02-.27-.15-.37-.41-.25-.71,.08-.21,.25-.29,.54-.3Z"/><path class="cls-5" d="M107.26,34.99c.43,0,2.4,1.64,2.46,1.96,.04,.2,.02,.39-.15,.55-.22,.2-.46,.15-.65,0-.62-.5-1.23-1.01-1.83-1.53-.19-.17-.26-.4-.17-.65,.07-.21,.24-.3,.34-.31Z"/><path class="cls-5" d="M116.95,20.47c-.08,.43-.35,.58-.69,.43-.72-.32-1.42-.69-2.11-1.06-.21-.12-.32-.36-.21-.62,.08-.19,.24-.39,.44-.33,.92,.24,1.76,.65,2.48,1.28,.07,.06,.06,.22,.09,.31Z"/><path class="cls-5" d="M138.49,76.19c.37,.4,.7,.84,1.12,1.18,.71,.59,.62,1.06-.11,1.51-.62-.6-1.23-1.2-1.85-1.81l-.35-.67c.29-.62,.71-.55,1.18-.22Z"/><path class="cls-5" d="M98.61,47.35c-.13,.45-.47,.65-.84,.27-.58-.58-1.09-1.24-1.59-1.9-.09-.12-.06-.39,0-.56,.08-.19,.3-.23,.51-.18,.36,.07,1.94,1.97,1.92,2.37Z"/><path class="cls-5" d="M127.46,25.33c.57,.3,1.28,.64,1.97,1.04,.27,.15,.31,.47,.17,.75-.16,.33-.44,.3-.71,.16-.64-.32-1.28-.64-1.91-.98-.26-.14-.42-.38-.28-.7,.11-.26,.34-.31,.77-.27Z"/><path class="cls-5" d="M131.53,27.45c.74,.24,1.52,.61,2.21,1.13,.2,.15,.25,.4,.13,.64-.16,.3-.42,.34-.7,.2-.67-.33-1.34-.66-2-1.01-.22-.12-.34-.34-.28-.6,.07-.27,.27-.37,.63-.36Z"/><path class="cls-5" d="M117.62,27.9c-.11,.4-.39,.55-.79,.32-.62-.35-1.22-.73-1.81-1.13-.26-.18-.51-.44-.28-.8,.22-.35,.53-.28,.83-.1,.58,.35,1.15,.7,1.72,1.07,.2,.13,.35,.32,.33,.64Z"/><path class="cls-5" d="M114.01,66.52c-.43-.05-2.09-2.05-2.01-2.41,.09-.39,.41-.57,.71-.35,.75,.58,1.37,1.32,1.78,2.17,.16,.34-.12,.59-.49,.59Z"/><path class="cls-5" d="M137.91,40.41c-.1,.5-.44,.62-.8,.43-.67-.34-1.3-.75-1.94-1.16-.22-.14-.28-.38-.2-.64,.09-.27,.33-.38,.57-.29,.82,.32,1.54,.81,2.23,1.35,.08,.06,.1,.21,.14,.3Z"/><path class="cls-5" d="M121.7,30.28c0,.27-.11,.45-.38,.52-.38,.1-2.44-1.14-2.57-1.54-.09-.27-.01-.46,.24-.58,.44-.21,2.67,1.1,2.71,1.6Z"/><path class="cls-5" d="M132.56,71.58c-.44,.02-2.34-1.77-2.32-2.15,.02-.41,.35-.63,.65-.44,.8,.51,1.56,1.1,2.04,1.94,.19,.33-.02,.61-.37,.65Z"/><path class="cls-5" d="M123.48,76.21c.08,.54,1.36,.83,.33,1.6-.84-.04-1-.93-1.59-1.28-.12-.13-.24-.26-.37-.39-.11-.37-.62-.78-.06-1.12,.49-.29,.76,.2,1.05,.5,.22,.22,.42,.46,.63,.69Z"/><path class="cls-5" d="M109.28,59.9c.6,.17,.92,.71,1.26,1.17,.33,.44,1.28,.94,.61,1.51-.65,.55-1-.45-1.43-.83-.32-.28-.58-.65-.8-1.02-.22-.37-.11-.68,.36-.83Z"/><path class="cls-5" d="M120.91,73.59c-.14,.42-.48,.55-.8,.28-.66-.56-1.25-1.21-1.65-1.98-.18-.35-.05-.73,.46-.71,.4,.02,2.05,2.02,1.99,2.41Z"/><path class="cls-5" d="M129.79,35.39c-.08,.37-.33,.56-.61,.45-.85-.33-1.69-.74-2.26-1.46-.29-.37,0-.78,.44-.66,.89,.23,1.63,.78,2.32,1.39,.08,.07,.08,.21,.11,.29Z"/><path class="cls-5" d="M129.37,67.7c-.11,.39-.4,.6-.76,.29-.65-.57-1.28-1.19-1.84-1.84-.3-.34-.12-.69,.35-.76,.41-.06,2.3,1.86,2.26,2.32Z"/><path class="cls-5" d="M140.07,31.76c.73,.28,1.52,.64,2.23,1.14,.17,.12,.2,.34,.09,.54-.17,.3-.46,.33-.72,.22-.69-.31-1.36-.64-2.02-.99-.22-.11-.35-.33-.24-.6,.1-.27,.32-.33,.67-.31Z"/><path class="cls-5" d="M100.29,39.88c-.42-.02-2.21-1.81-2.26-2.14-.03-.21,.03-.4,.21-.52,.18-.13,.39-.12,.54,.03,.6,.58,1.19,1.16,1.76,1.76,.17,.18,.18,.45,.04,.67-.08,.11-.24,.16-.29,.2Z"/><path class="cls-2" d="M42.68,21.52l-2.36,2.26c.41-1.22,1.1-2.27,1.84-3.29,.47,.19,.53,.59,.52,1.03Z"/><path class="cls-5" d="M143.59,66.01c-.54-.32-1.15-.65-1.36-1.33-.09-.3,.21-.57,.51-.48,.66,.2,1.24,.56,1.43,1.28,.07,.28-.2,.49-.57,.53Z"/><path class="cls-5" d="M125.56,80.45c-.2-.24-.4-.48-.61-.72-.29-.58-.22-1,.5-1.12,.18,.15,.35,.29,.53,.44,.11,.21,.21,.42,.34,.62,.17,.25,.28,.5,.08,.76-.26,.34-.56,.16-.85,.03Z"/><path class="cls-5" d="M142.74,80.6c.16,.18,.09,.45-.12,.63-.17,.14-.39,.15-.54,0-.45-.44-1.18-.7-1.08-1.54,.05-.02,.08-.05,.09-.1"/><path class="cls-5" d="M90.36,39.47c.41-.42,.84-.81,1.4-1.02-.11,.4,.14,.67,.34,.96,.17,.26,.2,.52-.06,.74-.27,.24-.51,.1-.73-.1-.28-.25-.47-.65-.95-.58Z"/><path class="cls-5" d="M85.09,43.06c.37-.39,.81-.66,1.31-.86,.03,.11,.04,.23,.08,.34,.16,.43,.59,.95,.11,1.29-.58,.41-.74-.34-1.07-.62-.11-.09-.28-.11-.43-.17Z"/><path class="cls-5" d="M95.57,35.57c.28-.39,.6-.72,1.05-.91,0,.08-.01,.16,0,.23,.08,.45,.85,.88,.26,1.31-.6,.44-.92-.31-1.31-.63Z"/><path class="cls-5" d="M100.43,31.07c.4-.56,.84-1.08,1.41-1.48,.19,1.12-.13,1.76-1.41,1.48Z"/><path class="cls-1" d="M98.51,33.01l.26-.25-.26,.25Z"/><path class="cls-1" d="M98.76,32.76l.25-.24-.25,.24Z"/><path class="cls-1" d="M99.01,32.52l.25-.23-.25,.23Z"/><path class="cls-1" d="M99.26,32.29l.24-.24-.24,.24Z"/><path class="cls-1" d="M99.5,32.05l.24-.24-.24,.24Z"/><path class="cls-1" d="M99.74,31.81l.24-.24-.24,.24Z"/><path class="cls-1" d="M99.98,31.57l.24-.24-.24,.24Z"/><path class="cls-1" d="M100.22,31.33l.21-.28-.21,.28Z"/><path class="cls-2" d="M9.1,51.95l-1.59-.1c.92-1.21,1.92-2.17,2.96-3.05,2.22-1.88,4.72-3.36,7.24-4.8,.44-.25,.88-.37,1.33-.01,.34,.28,.54,.6,.18,1.01-.47-.45-.82,0-1.16,.19-.66,.35-1.29,.78-1.92,1.19-2.53,1.63-5.09,3.22-7.05,5.58Z"/><path class="cls-3" d="M9.1,51.95c1.96-2.35,4.52-3.95,7.05-5.58,.63-.41,1.26-.83,1.92-1.19,.34-.18,.69-.64,1.16-.19-1.47,2.26-3.47,3.86-6,4.78-.35,.13-.63,.29-.82,.63-.62,1.09-1.97,1.71-3.31,1.54Z"/><path class="cls-3" d="M6.32,40.09c3.69,.58,7.46,.6,11.11,1.57,1.18,.31,2.33-.59,3.51-.86,.34-.08,.62-.55,1.11-.12-.31,.44-.82,.47-1.23,.65-.43,.2-1.07,.26-1.2,.7-.31,1-1.03,.6-1.51,.45-1.46-.44-2.95-.66-4.45-.84-2.05-.26-4.12-.4-6.19-.58-.08-.27-.19-.48-.49-.19-.38-.05-.61-.29-.8-.59,.05-.06,.09-.12,.14-.18Z"/><path class="cls-3" d="M17.42,35.02c-.39,.01-.5-.32-.66-.58-.2-.31-.09-.52,.23-.65,1.87-.74,3.11-2.3,4.58-3.55,.27-.23,.53-.48,.81-.7,.24-.2,.45-.04,.64,.11,.15,.12,.15,.3,.03,.42-1.73,1.75-3.45,3.52-5.5,4.9-.03,.02-.07,.03-.13,.04Z"/><path class="cls-3" d="M27.76,18.72c-1.86,.39-3.78,.33-5.64,.76-.74,.17-1.44,.43-2.17,.63-.26,.07-.56,.23-.71-.14-.15-.37,.15-.5,.41-.6,2.64-1.06,5.34-1.28,8.12-.65Z"/><path class="cls-3" d="M19.31,48.4c-1.05-1.72,1.23-2.2,1.2-3.52,.67,1.27,.28,2.32-1.2,3.52Z"/><path class="cls-3" d="M5.93,51.92c.12-1.68,1.18-2.71,2.45-3.61,.16-.11,.34-.24,.53-.07,.28,.25,.02,.42-.13,.57-.95,.95-1.95,1.85-2.56,3.09l-.28,.02Z"/><path class="cls-2" d="M6.09,40.28c-.9,.32-2.36-.43-2.97-1.53l.03-.03c.87,.4,1.75,.8,2.62,1.2l.32,.36Z"/><path class="cls-3" d="M29.82,20.55c.35,.89,.11,1.54-.28,2.17-.1,.17-.21,.36-.46,.26-.21-.08-.35-.32-.22-.47,.48-.53,.23-1.41,.96-1.97Z"/><path class="cls-2" d="M1.34,35.08c-.38-.54-.39-1.12-.31-1.71,.04-.34,.21-.65,.59-.58,.53,.09,.22,.46,.16,.72-.13,.52-.28,1.03-.43,1.56Z"/><path class="cls-2" d="M6.53,53.56c1,.14,1.95-.3,2.98-.3-.7,.79-1.99,.92-3.04,.35l.06-.05Z"/><path class="cls-2" d="M5.93,51.92l.28-.02c.1,.55,.21,1.11,.32,1.66l-.06,.05c-.48-.47-.78-.99-.54-1.69Z"/><path class="cls-2" d="M11.52,24.17c-.25,.42-.47,.58-.86,.51,.1-.42,.38-.5,.86-.51Z"/><path class="cls-2" d="M9.57,25.25c.15-.18,.3-.35,.55-.35,.04,0,.13,.1,.12,.14-.07,.27-.32,.28-.54,.33-.04-.04-.09-.08-.13-.12Z"/><path class="cls-2" d="M6.98,40.87c.3-.29,.41-.08,.49,.19-.21,.05-.38,0-.49-.19Z"/><path class="cls-2" d="M9.7,25.37c-.08,.14-.15,.28-.35,.25-.03,0-.07-.05-.08-.08-.02-.22,.15-.24,.3-.29,.04,.04,.08,.08,.13,.12Z"/><path class="cls-3" d="M6.09,40.28l-.32-.36c.18,.06,.36,.12,.55,.18-.05,.06-.1,.12-.14,.18h-.08Z"/><path class="cls-2" d="M2.66,38.25l.24,.24h.01l-.24-.25h-.01Z"/><path class="cls-2" d="M2.67,38.24l-.09-.03,.08,.05h.01Z"/><path class="cls-2" d="M2.9,38.49c.09,.07,.17,.15,.26,.22l-.03,.03c-.07-.09-.14-.18-.21-.27h-.01Z"/><path class="cls-2" d="M51.5,20.75c-2.28,.76-4.06,2.25-5.84,3.8-3.11,2.72-5.19,6.2-7.29,9.65-1.71,2.82-3.16,5.78-4.32,8.88-.31,.22-.67,.58-1.01,.29-.31-.25,.06-.64,.15-.95,.08-.29,.26-.55,.4-.82,.29-.04,.54-.16,.64-.46,.8-2.43,2.2-4.57,3.24-6.88,.3-.67,.97-1.19,.88-2.03h-.01c.67-.34,1.2-.77,1-1.65,.23-.33,.45-.67,.68-1,.11,.02,.28,.09,.31,.05,.69-.86,1.38-1.73,2.04-2.62,.13-.17,0-.38-.17-.52,2.29-2.73,4.8-5.19,8.17-6.57,.74-.3,1.28-.17,1.14,.83Z"/><path class="cls-2" d="M36.46,24.58c.24-.65,.48-1.29,.72-1.94,.6-.57,1.31-1.06,1.77-1.73,.53-.76,1.16-1,2-.91-1.52,2.85-3.2,5.62-4.43,8.62-.09,.21-.2,.49-.51,.32-.26-.15-.19-.39-.1-.63,.15-.45,.28-.91,.41-1.37,.67-.67,.88-1.56,1.28-2.5l-1.15,.15Z"/><path class="cls-2" d="M29.02,47.61c.36-.73,1-1.44-.25-2.04-.43-.21,.2-2.29,.7-2.29,.44,0,.77,.33,.74,.87-.11,1.68,.32,3.38-.43,5.05-.43,.96-.53,2.06-.6,3.14-.03,.57,.12,1.45-.89,1.56-.19-2.14,.42-4.19,.73-6.28Z"/><path class="cls-3" d="M40.96,20c-.85-.09-1.47,.15-2,.91-.46,.66-1.17,1.16-1.77,1.73-.14-.38-.56-.39-.86-.66,.72-.82,1.41-1.65,2.16-2.41,.88-.89,1.83-.7,2.48,.43Z"/><path class="cls-3" d="M29.02,47.61c-.31,2.08-.92,4.13-.73,6.28-.68-.58-.61-1.42-.67-2.17-.1-1.16,.21-2.29,.4-3.43,.11-.65,.45-.77,1-.68Z"/><path class="cls-3" d="M38.35,32.23c.09,.85-.58,1.36-.88,2.03-1.04,2.31-2.44,4.46-3.24,6.88-.1,.3-.34,.42-.64,.46,1.26-3.29,2.73-6.48,4.76-9.37Z"/><path class="cls-3" d="M53.47,23.61c-.08,.48-.17,.99-.26,1.49-.05,.25,0,.61-.43,.56-.39-.05-.53-.27-.44-.67,.12-.5,.21-1.01,.29-1.52,.07-.45,.18-.97,.75-.8,.49,.15-.02,.6,.09,.94Z"/><path class="cls-3" d="M36.46,24.58l1.15-.15c-.4,.94-.61,1.83-1.28,2.5-1.05-.84-.21-1.58,.13-2.35Z"/><path class="cls-3" d="M42.19,26.49c.16,.14,.3,.35,.17,.52-.66,.89-1.35,1.76-2.04,2.62-.03,.04-.2-.03-.31-.05,.6-1.12,1.3-2.17,2.18-3.09Z"/><path class="cls-2" d="M52.66,19.61c.46,.32,.67,.69,.78,1.11,.08,.28,.29,.64-.24,.71-.35,.05-.64-.06-.65-.47-.01-.42-.12-.84,.11-1.35Z"/><path class="cls-3" d="M39.33,30.58c.2,.87-.32,1.31-1,1.66,.18-.64,.52-1.19,1-1.66Z"/><path class="cls-2" d="M74.58,23.15c-1.17,.27-1.6,1.39-2.24,2.17-1.64,1.98-3.08,4.13-4.6,6.21-.2,.28-.31,.8-.69,.73-.46-.09-.37-.62-.43-1v.03c.46-.04,.51-.36,.49-.73h0c1.44-1.02,2.37-2.4,2.89-4.08h-.01c.65-.03,.76-.47,.73-1,.05-.07,.1-.13,.15-.2,1.31-.69,2.23-1.72,2.72-3.12h0c.81-.04,1.05-.9,1.7-1.18,.01,.52-.17,.99-.41,1.44-.31,.16-.31,.44-.3,.73h.03Z"/><path class="cls-3" d="M50.87,56.89c.41-1.58,1.01-3.39,1.76-5.16,.22-.51,.44-1.03,.66-1.54,.18-.42,.55-.5,.89-.34,.36,.17,.11,.5,0,.73-1.01,2.18-1.67,4.47-2.38,6.75-.08,.27-.05,.72-.52,.65-.44-.06-.54-.41-.43-1.1Z"/><path class="cls-2" d="M51.65,42.64c5.63-2.48,11.59-3.46,17.65-3.98-5.96,.96-11.91,1.96-17.65,3.98Z"/><path class="cls-2" d="M63.49,35.37c.95-.51,1.47-1.5,2.42-2.07-.67,1.81-1.99,3.27-2.88,4.95-.44,.06-.87,.4-1.39,.08,.47-1.08,1.14-2.03,1.84-2.96Z"/><path class="cls-3" d="M77.28,20.49c-.03,1.25-.35,2.44-.67,3.63-.11,.4-.27,.82-.8,.65-.49-.15-.31-.6-.22-.91,.33-1.14,.7-2.27,1.05-3.4,.21,0,.42,.02,.63,.03Z"/><path class="cls-3" d="M74.35,36.83c.27,.06,.43,.21,.35,.51-.51,2.11-1.03,4.23-1.55,6.34-.07,.29-.2,.52-.52,.57,.32-2.53,1.16-4.94,1.72-7.42Z"/><path class="cls-3" d="M69.98,26.47c-.52,1.68-1.44,3.06-2.89,4.09,.79-1.49,1.8-2.81,2.89-4.09Z"/><path class="cls-3" d="M73.57,22.16c-.49,1.4-1.41,2.43-2.72,3.12,.71-1.21,1.66-2.22,2.72-3.12Z"/><path class="cls-3" d="M71.95,47.14c.2,.05,.42,.14,.37,.37-.26,1.08-.25,2.24-.89,3.21-.09-1.23,.19-2.41,.52-3.58Z"/><path class="cls-3" d="M69.26,41.85c-.29-.63-.92-.42-1.41-.55,.61-.83,1.48-.23,2.21-.4-.06,.5-.08,1.02-.8,.95Z"/><path class="cls-2" d="M77.28,20.49c-.21,0-.42-.02-.63-.03,.03-.57,.07-1.15,.11-1.85,.82,.55,.72,1.2,.52,1.87Z"/><path class="cls-3" d="M75.26,20.98c-.65,.28-.89,1.14-1.7,1.19,.19-.82,.91-1.17,1.5-1.62,.11-.08,.28-.25,.35,0,.03,.12-.09,.29-.15,.43Z"/><path class="cls-3" d="M70.69,25.47c.03,.53-.08,.97-.73,1.01,.11-.43,.42-.72,.73-1.01Z"/><path class="cls-3" d="M74.55,23.15c0-.29-.01-.58,.3-.73-.07,.26-.04,.55-.3,.73Z"/><path class="cls-3" d="M54.66,44.25c.1-.08,.2-.17,.3-.25-.1,.08-.2,.17-.3,.25Z"/><path class="cls-2" d="M92.24,51.19c.02,.2,.04,.4,.05,.6,.15,4.41,3.97,4.99,6.77,3.86,.94-.38,1.46-1.17,1.82-2.11,.31-.79,.47-1.39,.36-2.41-.01-.11,.06-.56,.03-.66-.65-2.55,.13-4.7-.14-7.19-.03-.31,0-.67,.44-.7,.46-.03,.51,.3,.5,.64-.1,3.31,.28,6.63-.21,9.92-.32,2.14-1.99,3.51-4.15,3.61-1.81,.09-3.63,.11-5.01-1.37-.69-.74-1.23-1.99-1.14-3.38,.03-.38,0,0,.03-.4,.15,0,.48-.41,.63-.41Z"/><path class="cls-3" d="M92.24,51.19c-.15,0-.48,.41-.63,.41-.29-.37-.11-1.21-.11-1.65,0-2.11,0-4.22,0-6.33,0-.36-.19-.95,.36-.98,.62-.04,.39,.57,.39,.91,0,2.55,0,5.09-.02,7.64Z"/><path class="cls-2" d="M144.26,56.24c-.07,.52-.48,.46-.82,.46-1.91,0-3.83-.02-5.74,.01-.67,.01-.91-.24-.91-.91,.02-4.11,.02-8.22,0-12.33,0-.74,.29-1,.99-.96,.91,.05,2.28-.06,3.26,.07,.86,.11,.84-.07,1.95,.18,.37,.08,.79-.11,1.18,.24-.34,.42-.8,.26-1.19,.27-1.4,.02-2.79,.04-4.19,0-.8-.03-1.05,.29-1.02,1.05,.04,1.08,.08,2.16,0,3.23-.08,1,.3,1.4,1.26,1.33v.61c-.93-.05-1.33,.31-1.26,1.31,.09,1.3,.08,2.61,0,3.9-.06,.96,.24,1.42,1.24,1.3,.32,.33,.73,.24,1.12,.25,1.38,0,2.77,0,4.15,0Z"/><path class="cls-3" d="M139,49.48v-.61c1.4-.01,2.8-.03,4.19-.03,.24,0,.54,.02,.54,.33,0,.3-.3,.34-.54,.34-1.4,0-2.79-.01-4.19-.02Z"/><path class="cls-3" d="M144.26,56.24c-1.38,0-2.77,0-4.15,0-.39,0-.8,.09-1.12-.25,1.47-.01,2.95-.03,4.42-.03,.31,0,.65-.08,.85,.27Z"/><path class="cls-2" d="M132.02,52.88c-.45-2.12-2.32-2.5-3.93-3.18-1.31-.56-2.74-.95-3.24-2.53,.16-.33,.33-.67,.49-1,.56,1.7,1.96,2.37,3.5,2.89,1.17,.39,2.34,.8,3.19,1.76,.71,.79,1.12,1.69,.72,2.79-.48,0-.42-.55-.73-.72Z"/><path class="cls-2" d="M127.73,56.98c-.92-.15-1.89-.3-2.87-.48-.35-.06-.6-.27-.47-.67,.1-.33,.37-.2,.59-.15,1.84,.4,5.83,.63,6.69-1.13,.53-1.08,1.26-.51,.92,.13-.68,1.28-1.68,1.62-1.89,1.71-.93,.39-1.94,.38-2.98,.59Z"/><path class="cls-3" d="M125.33,46.16c-.16,.33-.33,.67-.49,1-.64-1.68-.31-3.22,.88-4.03,.32-.22,.73-.55,1.05-.13,.37,.47-.25,.55-.47,.73-.77,.64-1.02,1.47-.96,2.43Z"/><path class="cls-2" d="M132.25,42.88c-.05,.55-.25,.67-.51,.59-1.06-.35-2.16-.45-3.27-.47-.21,0-.37-.16-.39-.38-.03-.19,.1-.29,.28-.3,1.23-.09,2.45-.05,3.61,.44,.15,.06,.3,.12,.29,.12Z"/><path class="cls-3" d="M132.02,52.88c.31,.17,.25,.72,.73,.72,0,.04,0,.08,0,.12-.03,.55-.09,1.41-.63,1.34-.9-.12-.18-.87-.17-1.35,0-.28,.05-.55,.08-.83Z"/><path class="cls-2" d="M107.36,46.85v-1.32c0-.63,0-1.27,0-1.9,0-.29,.04-.59,.47-.43,0,1.87-.01,3.75,0,5.62,0,.39-.05,.98,.5,.89,1.13-.19,2.63-.13,3.69-.12,.3,0,.04,.64,.34,.64,1.12,1.84,2.26,3.67,3.36,5.52,.15,.25,.62,.61,.15,.88-.39,.22-.75-.1-.97-.48-.85-1.45-1.77-2.86-2.51-4.36-.51-1.04-1.16-1.42-2.32-1.36-2.57,.12-2.21-.32-2.24,2.23-.01,1.08,0,2.16,0,3.24,0,.62-.16,1.1-.9,.56,.66-.21,.43-.77,.43-1.2,.02-2.8,0-5.61,0-8.41Z"/><path class="cls-3" d="M107.84,43.2c-.44-.16-.46,.15-.47,.43-.02,.63,0,2.59,0,3.22-.85-.79-.5-3.08-.4-4.02,0-.09,.23-.27,.34-.26,2.05,.09,4.14-.45,6.13,.46-.36,.04-.75-.07-1.03,.25-1.52-.03-3.04-.05-4.56-.08Z"/><path class="cls-3" d="M107.36,46.85c0,2.8,.01,5.61,0,8.41,0,.43,.23,.99-.43,1.2-.01-2.9-.03-5.8-.03-8.69,0-.38-.24-4.22,.48-.92Z"/><path class="cls-2" d="M112.39,43.28c.29-.32,.68-.21,1.03-.25,1.73,.56,2.51,2.39,1.84,4.34-.4-.4-.2-1.09-.7-1.44-.16-1.35-1.03-2.11-2.17-2.65Z"/><path class="cls-3" d="M114.57,45.93c.5,.35,.31,1.04,.7,1.44-.13,1.18-.92,1.83-1.89,2.34-.34,.18-.68,.35-1.03,.53-.3,0-.61,0-.91,.01,0-.39,.26-.59,.57-.65,2.01-.42,2.59-1.82,2.55-3.66Z"/><path class="cls-2" d="M161.74,49.54c1.45,0,2.89,0,4.34,0l.2,.02c.5,.76-.16,.66-.53,.67-1.48,.02-2.95,.04-4.43,0-.78-.02-1.05,.26-1.03,1.04,.04,1.52,.02,3.04,0,4.55,0,.34,.08,.8-.44,.83-.64,.04-.52-.49-.52-.86,0-4.11,0-8.23-.01-12.34,0-.64,.19-.95,.88-.94,1.91,.03,3.83,0,5.74,.01,.29,0,.76-.1,.76,.34,0,.53-.51,.39-.84,.39-1.52,.02-3.03,.04-4.55,0-.78-.02-1.07,.25-1.04,1.04,.05,1.32,.07,2.64,0,3.95-.06,.99,.27,1.42,1.25,1.31,.08,.1,.14,.09,.21-.01Z"/><path class="cls-3" d="M161.74,49.54c-.06,.1-.13,.11-.21,.01,.07-.02,.14-.02,.21-.01Z"/><path class="cls-3" d="M166.28,49.56l-.2-.02c.07,0,.14,0,.2,.02Z"/><path class="cls-2" d="M148.35,49.53c0-2.04,0-4.07,0-6.11,0-.42-.09-1.01,.56-.97,.6,.03,.39,.6,.39,.96,.01,3.75,.03,7.51-.01,11.26-.01,.98,.29,1.36,1.3,1.31,1.43-.08,2.87-.05,4.31-.03,.36,0,.98-.2,.98,.34,0,.65-.67,.38-1.05,.39-1.75,.03-3.51-.03-5.26,.03-.93,.04-1.28-.22-1.24-1.19,.07-1.99,.02-3.99,.02-5.99Z"/><path class="cls-5" d="M107.31,78.08l.05-.47c1.08,.1,1.64,.91,1.43,2.04-1.07,.03-1.12-.92-1.48-1.57Z"/><path class="cls-3" d="M103.76,82.13c.07,.16,.14,.31,.21,.47-.07-.16-.14-.31-.21-.47Z"/><path class="cls-1" d="M114.57,45.93c.04,1.84-.54,3.24-2.55,3.66-.31,.07-.57,.1-1.15,.14-1.06-.01-1.42-.22-2.54-.03-.55,.09-.5-.5-.5-.89,0-1.87,0-3.75,0-5.62,1.52,.03,3.04,.05,4.56,.08,1.15,.53,2.02,1.3,2.17,2.65Zm-5.96,2.65c.89,.47,.81,.35,1.45,.38,1.21,.05,1.65-.04,2.48-.39,1.02-.44,1.27-1.4,1.2-2.39-.07-.92-.47-1.65-1.5-1.91-.98-.25-1.97-.21-2.96-.23-.54,0-.68,.28-.67,.75,.01,1.27,0,2.53,0,3.8Z"/></g><text class="cls-6" transform="translate(0 73.78)"><tspan class="cls-13" x="0" y="0">BO</tspan><tspan class="cls-9" x="22.79" y="0">T</tspan><tspan class="cls-13" x="32.66" y="0">ANICAL SH</tspan><tspan class="cls-8" x="122.34" y="0">O</tspan><tspan class="cls-13" x="134.41" y="0">WER</tspan></text><path class="cls-5" d="M146.8,35.4c-.07,.47-.32,.68-.74,.49-.69-.31-1.35-.66-2.02-1.01-.29-.15-.35-.42-.25-.72,.07-.21,.26-.36,.46-.3,.87,.28,1.69,.66,2.41,1.24,.08,.07,.11,.2,.15,.3Z"/><path class="cls-5" d="M150.96,37.76c-.17,.3-.46,.33-.72,.22-.69-.31-1.36-.64-2.02-.99-.22-.11-.35-.33-.24-.6,.1-.27,.32-.33,.67-.31,.73,.28,1.52,.64,2.23,1.14"/><polygon class="cls-3" points="128.19 42.37 127.3 42.46 126.81 42.59 126.23 42.84 126.74 43.45 128.48 43 128.19 42.37"/><path class="cls-5" d="M115.33,41.53c.71,.51,1.57,1.02,2.13,1.86,.08,.12,0,.4-.09,.54-.16,.24-.43,.19-.63,.04-.66-.51-1.3-1.03-1.93-1.57-.19-.16-.22-.42-.09-.66,.1-.2,.29-.26,.62-.21Z"/><path class="cls-5" d="M155.13,39.76c-.17,.3-.46,.33-.72,.22-.69-.31-1.36-.64-2.02-.99-.22-.11-.35-.33-.24-.6,.1-.27,.32-.33,.67-.31,.73,.28,1.52,.64,2.23,1.14"/><path class="cls-5" d="M150.8,47.49c.09-.27,.33-.38,.57-.29,.82,.32,1.54,.81,2.23,1.35,.08,.06,.1,.21,.14,.3-.1,.5-.44,.62-.8,.43-.67-.34-1.3-.75-1.94-1.16"/><path class="cls-5" d="M125.06,50.79c-.33-.01-2.25-1.68-2.3-1.99-.05-.32,.05-.55,.4-.6,.43-.06,2.44,1.67,2.43,2.16"/><path class="cls-5" d="M131.44,44.79c.93,.45,1.77,1.05,2.5,1.79,.05,.05,.04,.15,.07,.23-.12,.4-.37,.68-.78,.42-.77-.49-1.49-1.05-2.22-1.61-.2-.15-.25-.41-.09-.64,.13-.18,.33-.28,.52-.19"/><path class="cls-5" d="M140.65,51.26c.93,.45,1.77,1.05,2.5,1.79,.05,.05,.04,.15,.07,.23-.12,.4-.37,.68-.78,.42-.77-.49-1.49-1.05-2.22-1.61-.2-.15-.25-.41-.09-.64,.13-.18,.33-.28,.52-.19"/><path class="cls-5" d="M104.52,27.18c.49-.43,.54-.57,.78-1.21,.02,.08,.26,.41,.51,.6,.31,.22,.93,.54,.39,1.14-.54,.61-1.18-.3-1.69-.54Z"/><path class="cls-5" d="M107.83,22.75c.49-.43,.54-.65,.78-1.29,.02,.08,.26,.41,.51,.6,.31,.22,.93,.54,.39,1.14-.54,.61-1.18-.22-1.69-.46Z"/><path class="cls-5" d="M110.98,18.4c.49-.43,.44-.72,.69-1.35,.02,.08,.19,.39,.61,.52,.36,.12,.93,.54,.39,1.14-.54,.61-.93-.37-1.69-.32Z"/><circle class="cls-10" cx="92.46" cy="6.6" r="2.37"/><circle class="cls-10" cx="112.5" cy="3.76" r="3.68"/><circle class="cls-12" cx="130.78" cy="10.43" r="5.95"/><circle class="cls-12" cx="82.65" cy="59.6" r="4"/><circle class="cls-10" cx="104.83" cy="61.27" r="2.22"/><circle class="cls-11" cx="172.36" cy="71.6" r="2.02"/><text class="cls-7" transform="translate(171.63 72.38)"><tspan x="0" y="0">R</tspan></text></svg>