<?xml version="1.0" encoding="UTF-8"?><svg id="Layer_1" xmlns="http://www.w3.org/2000/svg" viewBox="0 0 408.68 408.88"><defs><style>.cls-1{fill:none;}.cls-2{fill:#fff;}</style></defs><path class="cls-2" d="M408.68,192.45v23.96c-.33,2.87-.66,5.75-.98,8.62-4.89,43.99-21.69,82.8-51.34,115.71-31.48,34.94-70.48,56.75-116.89,64.96-7.69,1.36-15.49,2.13-23.23,3.18h-23.96c-6.84-.86-13.72-1.48-20.51-2.61-42.69-7.13-79.9-25.51-110.52-56.11C15.33,304.26-4.88,248.47,.99,183.87c3.94-43.36,20.91-81.69,49.9-114.26C89.4,26.37,137.85,3.07,195.68,.25c40.32-1.96,78.23,7.44,112.74,28.49,53.05,32.37,85.62,79.25,97.07,140.5,1.43,7.67,2.14,15.47,3.18,23.21Zm-255.52,11.77c0,24.75,.03,49.5-.03,74.26-.01,4.07,.51,7.76,4.42,9.96,3.92,2.21,7.35,.74,10.77-1.47,38.34-24.69,76.72-49.33,115.07-74,8.17-5.26,8.18-11.83,.01-17.08-38.35-24.67-76.73-49.31-115.07-74-3.43-2.21-6.85-3.67-10.77-1.48-3.92,2.19-4.45,5.88-4.44,9.95,.06,24.62,.03,49.24,.03,73.86Z"/><path class="cls-1" d="M153.16,204.23c0-24.62,.03-49.24-.03-73.86-.01-4.07,.52-7.76,4.44-9.95,3.92-2.19,7.34-.73,10.77,1.48,38.34,24.69,76.72,49.33,115.07,74,8.16,5.25,8.16,11.82-.01,17.08-38.35,24.67-76.73,49.31-115.07,74-3.42,2.2-6.85,3.67-10.77,1.47-3.91-2.2-4.43-5.89-4.42-9.96,.06-24.75,.03-49.5,.03-74.26Z"/></svg>