<?xml version="1.0" encoding="UTF-8"?><svg id="Icon" xmlns="http://www.w3.org/2000/svg" xmlns:xlink="http://www.w3.org/1999/xlink" viewBox="0 0 250.96 278.1"><defs><style>.cls-1{fill:url(#New_Gradient_Swatch_2);}.cls-2{fill:url(#New_Gradient_Swatch_2-2);}.cls-3{fill:url(#New_Gradient_Swatch_2-3);}</style><linearGradient id="New_Gradient_Swatch_2" x1="0" y1="146.46" x2="77.17" y2="146.46" gradientUnits="userSpaceOnUse"><stop offset="0" stop-color="#f87b0c"/><stop offset=".07" stop-color="#f5721b"/><stop offset=".25" stop-color="#f05e3e"/><stop offset=".44" stop-color="#ec4f5a"/><stop offset=".62" stop-color="#e9446e"/><stop offset=".81" stop-color="#e73e7a"/><stop offset="1" stop-color="#e73c7e"/></linearGradient><linearGradient id="New_Gradient_Swatch_2-2" x1="173.79" y1="146.46" x2="250.96" y2="146.46" xlink:href="#New_Gradient_Swatch_2"/><linearGradient id="New_Gradient_Swatch_2-3" x1="89.78" y1="151.19" x2="160.19" y2="151.19" xlink:href="#New_Gradient_Swatch_2"/></defs><path class="cls-1" d="M66.11,209.02c-2.71,0-5.42-.99-7.56-2.98L3.51,154.54c-2.24-2.09-3.51-5.02-3.51-8.08s1.27-5.99,3.51-8.08l27.52-25.75,27.52-25.75c4.46-4.17,11.46-3.94,15.64,.52,4.17,4.46,3.94,11.46-.52,15.64l-46.41,43.42,46.41,43.42c4.46,4.17,4.7,11.17,.52,15.64-2.18,2.33-5.13,3.51-8.08,3.51Z"/><path class="cls-2" d="M184.85,209.02c-2.96,0-5.9-1.18-8.08-3.51-4.17-4.46-3.94-11.46,.52-15.64l46.41-43.42-18.89-17.67-27.52-25.75c-4.46-4.17-4.7-11.17-.52-15.64,4.17-4.46,11.17-4.7,15.64-.52l27.52,25.75,27.52,25.75c2.24,2.09,3.51,5.02,3.51,8.08s-1.27,5.99-3.51,8.08l-55.05,51.5c-2.13,2-4.85,2.98-7.56,2.98Z"/><path class="cls-3" d="M100.85,227.12c-1.28,0-2.58-.22-3.86-.7-5.73-2.13-8.64-8.5-6.51-14.23l48.27-129.74c2.13-5.73,8.5-8.64,14.23-6.51,5.73,2.13,8.64,8.5,6.51,14.23l-48.27,129.74c-1.66,4.45-5.88,7.21-10.37,7.21Z"/></svg>