<?xml version="1.0" encoding="UTF-8"?><svg id="Icon" xmlns="http://www.w3.org/2000/svg" xmlns:xlink="http://www.w3.org/1999/xlink" viewBox="0 0 250.96 278.1"><defs><style>.cls-1{fill:url(#New_Gradient_Swatch_2);}.cls-2{fill:url(#New_Gradient_Swatch_2-2);}.cls-3{fill:url(#New_Gradient_Swatch_2-4);}.cls-4{fill:url(#New_Gradient_Swatch_2-3);}</style><linearGradient id="New_Gradient_Swatch_2" x1="0" y1="129.37" x2="234.05" y2="129.37" gradientUnits="userSpaceOnUse"><stop offset="0" stop-color="#f87b0c"/><stop offset=".07" stop-color="#f5721b"/><stop offset=".25" stop-color="#f05e3e"/><stop offset=".44" stop-color="#ec4f5a"/><stop offset=".62" stop-color="#e9446e"/><stop offset=".81" stop-color="#e73e7a"/><stop offset="1" stop-color="#e73c7e"/></linearGradient><linearGradient id="New_Gradient_Swatch_2-2" x1="205.37" y1="176.05" x2="245.38" y2="176.05" xlink:href="#New_Gradient_Swatch_2"/><linearGradient id="New_Gradient_Swatch_2-3" x1="102.94" y1="151.5" x2="250.43" y2="151.5" xlink:href="#New_Gradient_Swatch_2"/><linearGradient id="New_Gradient_Swatch_2-4" x1="106.69" y1="164.11" x2="139.73" y2="164.11" gradientTransform="translate(258.1 9.46) rotate(77.99)" xlink:href="#New_Gradient_Swatch_2"/></defs><g><g><path class="cls-1" d="M158.16,80.14c10.85,4.59,20.6,11.16,28.97,19.54,5.79,5.79,10.72,12.24,14.72,19.25l32.2-6.37c-6.06-13.09-14.33-24.92-24.6-35.2-11.26-11.26-24.38-20.11-38.99-26.29-15.14-6.4-31.21-9.65-47.76-9.65s-32.63,3.25-47.76,9.65c-14.61,6.18-27.73,15.02-38.99,26.29-11.26,11.26-20.11,24.38-26.29,38.99C3.25,131.49,0,147.56,0,164.11c0,18.63,4.07,36.53,12.11,53.2l28.44-13.7c-5.96-12.36-8.98-25.65-8.98-39.5,0-12.31,2.41-24.24,7.15-35.47,4.59-10.85,11.16-20.6,19.54-28.97,8.37-8.37,18.12-14.95,28.97-19.54,11.22-4.75,23.16-7.15,35.47-7.15s24.24,2.41,35.47,7.15Z"/><path class="cls-2" d="M212.9,151.13c.61,4.27,.91,8.6,.91,12.98,0,13.41-2.84,26.32-8.44,38.37l28.62,13.31c7.56-16.25,11.39-33.64,11.39-51.68,0-9.46-1.06-18.75-3.16-27.81l-29.32,14.82Z"/></g><path class="cls-4" d="M104.03,170.57h0c3.95,11.58,17.23,16.99,28.15,11.47l117.06-59.18c2.23-1.13,1.06-4.5-1.38-4.02l-128.67,25.46c-11.96,2.37-19.09,14.73-15.15,26.27Z"/></g><circle class="cls-3" cx="123.21" cy="164.11" r="16.52" transform="translate(-62.95 250.48) rotate(-77.99)"/></svg>