<?xml version="1.0" encoding="UTF-8"?><svg id="Icon" xmlns="http://www.w3.org/2000/svg" xmlns:xlink="http://www.w3.org/1999/xlink" viewBox="0 0 250.96 278.1"><defs><style>.cls-1{fill:url(#New_Gradient_Swatch_2);}.cls-2{fill:url(#New_Gradient_Swatch_2-2);}.cls-3{fill:url(#New_Gradient_Swatch_2-4);}.cls-4{fill:url(#New_Gradient_Swatch_2-3);}</style><linearGradient id="New_Gradient_Swatch_2" x1="79.97" y1="152.36" x2="170.19" y2="152.36" gradientUnits="userSpaceOnUse"><stop offset="0" stop-color="#f87b0c"/><stop offset=".07" stop-color="#f5721b"/><stop offset=".25" stop-color="#f05e3e"/><stop offset=".44" stop-color="#ec4f5a"/><stop offset=".62" stop-color="#e9446e"/><stop offset=".81" stop-color="#e73e7a"/><stop offset="1" stop-color="#e73c7e"/></linearGradient><linearGradient id="New_Gradient_Swatch_2-2" x1="0" y1="139.05" x2="250.16" y2="139.05" xlink:href="#New_Gradient_Swatch_2"/><linearGradient id="New_Gradient_Swatch_2-3" x1="95.54" y1="136.34" x2="121.37" y2="136.34" xlink:href="#New_Gradient_Swatch_2"/><linearGradient id="New_Gradient_Swatch_2-4" x1="101.49" y1="63.81" x2="147.41" y2="63.81" xlink:href="#New_Gradient_Swatch_2"/></defs><path class="cls-1" d="M125.08,197.47c24.87,0,45.11-20.23,45.11-45.11s-20.24-45.11-45.11-45.11-45.11,20.24-45.11,45.11,20.24,45.11,45.11,45.11Zm0-81.07c19.83,0,35.96,16.13,35.96,35.96s-16.13,35.96-35.96,35.96-35.96-16.13-35.96-35.96,16.13-35.96,35.96-35.96Z"/><path class="cls-2" d="M229.22,71.74h-57.44l-6.06-16.13c-2.36-6.28-8.45-10.49-15.16-10.49h-50.96c-6.71,0-12.8,4.22-15.16,10.49l-6.06,16.13h-23.66v-3.05c0-2.16-1.75-3.9-3.9-3.9H30.29c-2.16,0-3.9,1.75-3.9,3.9v3.05h-5.45c-11.55,0-20.94,9.39-20.94,20.94v119.37c0,11.55,9.39,20.94,20.94,20.94H229.22c11.55,0,20.94-9.39,20.94-20.94V92.68c0-11.55-9.39-20.94-20.94-20.94ZM20.94,80.56h58.2c3.2,0,6.11-2.01,7.24-5.01l6.33-16.84c1.07-2.86,3.85-4.78,6.9-4.78h50.96c3.05,0,5.82,1.92,6.9,4.78l6.33,16.84c1.13,3,4.04,5.01,7.24,5.01h58.2c6.68,0,12.12,5.44,12.12,12.12v16.19h-69.35c-.55-.59-1.1-1.17-1.67-1.74-12.08-12.08-28.15-18.74-45.24-18.74s-33.15,6.65-45.24,18.74c-.57,.57-1.13,1.16-1.67,1.74H8.82v-16.19c0-6.68,5.44-12.12,12.12-12.12Zm104.14,16.97c30.23,0,54.83,24.6,54.83,54.83s-24.6,54.83-54.83,54.83-54.83-24.6-54.83-54.83,24.6-54.83,54.83-54.83Zm104.14,126.63H20.94c-6.68,0-12.12-5.44-12.12-12.12V117.69h62.47c-6.63,10.24-10.19,22.18-10.19,34.67,0,17.09,6.65,33.15,18.74,45.24,12.08,12.08,28.15,18.74,45.24,18.74s33.15-6.65,45.24-18.74c12.08-12.08,18.74-28.15,18.74-45.24,0-12.49-3.56-24.43-10.19-34.67h62.47v94.36c0,6.68-5.44,12.12-12.12,12.12Z"/><path class="cls-4" d="M98.28,149.51c.28,.07,.57,.1,.85,.1,1.61,0,3.08-1.1,3.48-2.74,1.96-8.08,8.15-14.5,16.15-16.77,1.9-.54,3.01-2.52,2.47-4.43-.54-1.9-2.52-3.01-4.43-2.47-10.48,2.97-18.59,11.39-21.16,21.97-.47,1.92,.71,3.86,2.64,4.33Z"/><path class="cls-3" d="M105.77,68.09h37.37c2.36,0,4.27-1.91,4.27-4.27s-1.91-4.27-4.27-4.27h-37.37c-2.36,0-4.27,1.91-4.27,4.27s1.91,4.27,4.27,4.27Z"/></svg>