<?xml version="1.0" encoding="UTF-8"?><svg id="Icon" xmlns="http://www.w3.org/2000/svg" viewBox="0 0 327.76 290.01"><defs><style>.cls-1{fill:#fff;}</style></defs><g><g><path class="cls-1" d="M234.92,278.15H84.76c-3.31,0-6-2.69-6-6s2.69-6,6-6H234.92c1.23,0,3.37-1.64,3.37-2.58V14.59c0-.94-2.14-2.59-3.37-2.59H58.87c-1.23,0-3.37,1.64-3.37,2.59V95.16c0,3.31-2.69,6-6,6s-6-2.69-6-6V14.59c0-8.35,8.11-14.59,15.37-14.59H234.92c7.25,0,15.37,6.24,15.37,14.59v248.98c0,8.35-8.11,14.58-15.37,14.58Z"/><path class="cls-1" d="M155.86,241.3h-17.92c-3.31,0-6-2.69-6-6s2.69-6,6-6h17.92c3.31,0,6,2.69,6,6s-2.69,6-6,6Z"/><circle class="cls-1" cx="144.93" cy="24.88" r="7"/></g><g><path class="cls-1" d="M95.14,278.1H15.67c-8.64,0-15.67-7.03-15.67-15.67V106.25c0-8.64,7.03-15.67,15.67-15.67H95.14c8.64,0,15.67,7.03,15.67,15.67v156.17c0,8.64-7.03,15.67-15.67,15.67ZM15.67,102.58c-2.03,0-3.67,1.65-3.67,3.67v156.17c0,2.03,1.65,3.67,3.67,3.67H95.14c2.03,0,3.67-1.65,3.67-3.67V106.25c0-2.03-1.65-3.67-3.67-3.67H15.67Z"/><path class="cls-1" d="M63.55,247.1h-17.7c-3.31,0-6-2.69-6-6s2.69-6,6-6h17.7c3.31,0,6,2.69,6,6s-2.69,6-6,6Z"/></g></g><g><g><path class="cls-1" d="M312.4,290.01H162.23c-3.31,0-6-2.69-6-6s2.69-6,6-6h150.17c1.23,0,3.37-1.64,3.37-2.58V26.45c0-.94-2.14-2.59-3.37-2.59H136.34c-1.23,0-3.37,1.64-3.37,2.59V107.02c0,3.31-2.69,6-6,6s-6-2.69-6-6V26.45c0-8.35,8.11-14.59,15.37-14.59h176.05c7.25,0,15.37,6.24,15.37,14.59v248.98c0,8.35-8.11,14.58-15.37,14.58Z"/><path class="cls-1" d="M233.33,253.16h-17.92c-3.31,0-6-2.69-6-6s2.69-6,6-6h17.92c3.31,0,6,2.69,6,6s-2.69,6-6,6Z"/><circle class="cls-1" cx="222.4" cy="36.74" r="7"/></g><g><path class="cls-1" d="M172.61,289.95H93.15c-8.64,0-15.67-7.03-15.67-15.67V118.11c0-8.64,7.03-15.67,15.67-15.67h79.47c8.64,0,15.67,7.03,15.67,15.67v156.17c0,8.64-7.03,15.67-15.67,15.67ZM93.15,114.44c-2.03,0-3.67,1.65-3.67,3.67v156.17c0,2.03,1.65,3.67,3.67,3.67h79.47c2.03,0,3.67-1.65,3.67-3.67V118.11c0-2.03-1.65-3.67-3.67-3.67H93.15Z"/><path class="cls-1" d="M141.02,258.96h-17.7c-3.31,0-6-2.69-6-6s2.69-6,6-6h17.7c3.31,0,6,2.69,6,6s-2.69,6-6,6Z"/></g></g></svg>